<?xml version="1.0" encoding="iso-8859-1"?>
<!-- Generator: Adobe Illustrator 19.0.0, SVG Export Plug-In . SVG Version: 6.00 Build 0)  -->
<svg version="1.1" id="Layer_1" xmlns="http://www.w3.org/2000/svg" xmlns:xlink="http://www.w3.org/1999/xlink" x="0px" y="0px"
	 viewBox="0 0 332.612 332.612" style="enable-background:new 0 0 332.612 332.612;" xml:space="preserve">
<g>
	<path style="fill:#FF7876;" d="M166.069,241.138c-68.199,0-129.434-40.588-156.002-103.404
		c-6.992-16.531,0.741-35.601,17.272-42.593c16.532-6.992,35.602,0.741,42.593,17.272c36.004,85.125,157.286,84.789,192.623-0.836
		c6.847-16.592,25.844-24.493,42.44-17.645c16.592,6.847,24.491,25.849,17.643,42.44
		C296.861,198.837,235.745,241.138,166.069,241.138z"/>
	<path style="fill:#414042;" d="M307.857,86.999c-20.39-8.413-43.821,1.329-52.234,21.716
		c-32.846,79.592-145.42,79.658-178.782,0.777C68.228,89.13,44.782,79.62,24.418,88.233C4.104,96.826-5.432,120.342,3.16,140.655
		c27.744,65.597,91.69,107.983,162.909,107.983c72.668,0,136.549-44.09,163.503-109.404
		C338.006,118.797,328.295,95.435,307.857,86.999z M315.707,133.512c-24.638,59.698-83.045,100.126-149.638,100.126
		c-65.18,0-123.702-38.791-149.095-98.826c-5.369-12.696,0.591-27.394,13.287-32.764c12.728-5.384,27.38,0.559,32.764,13.286
		c9.994,23.629,27.42,42.486,48.886,54.352l-16.43,23.543c-2.37,3.397-1.539,8.072,1.858,10.443
		c3.396,2.37,8.073,1.538,10.442-1.858l17.92-25.678c7.258,2.802,14.853,4.847,22.673,6.091l-7.096,11.308
		c-2.202,3.509-1.143,8.138,2.366,10.339c3.511,2.202,8.139,1.141,10.339-2.367l11.224-17.887
		c11.442,0.087,22.497-1.512,33.192-4.721l-10.732,14.073c-2.512,3.293-1.878,8,1.416,10.512c3.297,2.514,8.003,1.875,10.512-1.416
		l28.121-36.876c18.281-12.061,33-29.503,41.771-50.757c5.259-12.742,19.903-18.829,32.646-13.572
		C314.907,106.137,320.979,120.737,315.707,133.512z"/>
</g>
<g>
</g>
<g>
</g>
<g>
</g>
<g>
</g>
<g>
</g>
<g>
</g>
<g>
</g>
<g>
</g>
<g>
</g>
<g>
</g>
<g>
</g>
<g>
</g>
<g>
</g>
<g>
</g>
<g>
</g>
</svg>
